<svg xmlns="http://www.w3.org/2000/svg" width="770" height="193" viewBox="0 0 770 193" role="img" aria-labelledby="title desc"><title id="title">Vtechiee Logo</title><desc id="desc">Vtechiee Cloud SAP Software logo</desc><defs><linearGradient id="blue" x1="0" y1="0" x2="1" y2="1"><stop offset="0" stop-color="#23d2ff"/><stop offset="0.45" stop-color="#006dff"/><stop offset="1" stop-color="#003379"/></linearGradient><linearGradient id="navy" x1="0" y1="0" x2="1" y2="0"><stop offset="0" stop-color="#006dff"/><stop offset="0.28" stop-color="#0056da"/><stop offset="0.38" stop-color="#071b44"/><stop offset="1" stop-color="#071b44"/></linearGradient><filter id="shadow" x="-20%" y="-20%" width="140%" height="140%"><feDropShadow dx="0" dy="10" stdDeviation="9" flood-color="#003379" flood-opacity="0.20"/></filter></defs><rect width="770" height="193" fill="transparent"/><g transform="translate(42 20)" filter="url(#shadow)"><path d="M25 34 H70 L107 116 L144 34 H189 L124 154 H91 Z" fill="url(#blue)"/><path d="M38 111 C72 137 143 137 176 101" fill="none" stroke="url(#blue)" stroke-width="13" stroke-linecap="round"/><path d="M20 113 C66 158 152 158 199 110" fill="none" stroke="#071b44" stroke-width="4" stroke-linecap="round" opacity=".75"/><rect x="150" y="6" width="13" height="13" rx="2" fill="#21c8ff"/><rect x="174" y="20" width="10" height="10" rx="2" fill="#0077ff"/><rect x="156" y="28" width="11" height="11" rx="2" fill="#008dff"/><rect x="186" y="45" width="8" height="8" rx="2" fill="#1bd1ff"/></g><g transform="translate(250 44)"><text x="0" y="70" font-family="Arial Black, Montserrat, Arial, sans-serif" font-size="82" font-weight="900" letter-spacing="-4" fill="url(#navy)">Vtechiee</text><line x1="0" y1="112" x2="70" y2="112" stroke="#0077ff" stroke-width="4"/><text x="88" y="121" font-family="Arial, sans-serif" font-size="22" font-weight="700" letter-spacing="12" fill="#071b44">CLOUD • SAP • SOFTWARE</text><line x1="488" y1="112" x2="556" y2="112" stroke="#0077ff" stroke-width="4"/></g></svg>